<?xml version="1.0" encoding="utf-8"?>
<!-- Generator: Adobe Illustrator 22.0.1, SVG Export Plug-In . SVG Version: 6.00 Build 0)  -->
<svg version="1.1" id="图层_1" xmlns="http://www.w3.org/2000/svg" xmlns:xlink="http://www.w3.org/1999/xlink" x="0px" y="0px"
	 viewBox="0 0 99 67" style="enable-background:new 0 0 99 67;" xml:space="preserve">
<style type="text/css">
	.st0{fill:#FFEE00;}
	.st1{fill:#FFFFFF;}
</style>
<title>Combined Shape</title>
<desc>Created with Sketch.</desc>
<polygon class="st0" points="49.3,30.5 33.7,21.5 33.7,39.6 "/>
<polygon points="49.3,30.5 39.5,24.9 39.5,36.2 "/>
<polygon class="st1" points="49.3,30.5 39.5,24.9 39.5,36.2 "/>
<path d="M98.4,20.2L98.4,20.2l-14.6-8.4l-3.3-1.9l0,0l-0.1-0.1l-14.7,8.6L65,18.8l-15.5-9L34,18.7L18.5,9.8l-18,10.4V41l18,10.4
	l1.3-0.7l0,0.1l14-8.2l15.6,8.9l0.1,0l0,0l13.1-7.5v13.7h4.9V43.8l13,7.5l0.1,0l0,0l18-10.4L98.4,20.2L98.4,20.2z M67.5,38.2V23.1
	l0.7-0.4l12.4-7.1l0.9,0.5l12.1,7v15.2l-13,7.5L67.5,38.2z M49.5,15.5l13.1,7.6v12.3L38.9,21.6L49.5,15.5z M49.5,45.7l-10.7-6.2
	l10.6-6.2l10.8,6.3L49.5,45.7z M5.4,23.1l13.1-7.6l14.2,8.1l0,0l11.8,6.9l-10.8,6.3l0,0l-10.2,6l-5,2.9L5.4,38.2V23.1z"/>
</svg>
