<?xml version="1.0" encoding="utf-8"?>
<!-- Generator: Adobe Illustrator 22.0.1, SVG Export Plug-In . SVG Version: 6.00 Build 0)  -->
<svg version="1.1" id="图层_1" xmlns="http://www.w3.org/2000/svg" xmlns:xlink="http://www.w3.org/1999/xlink" x="0px" y="0px"
	 viewBox="0 0 98 68" style="enable-background:new 0 0 98 68;" xml:space="preserve">
<style type="text/css">
	.st0{fill:#FFEE00;}
	.st1{fill:#FFFFFF;}
</style>
<title>Combined Shape</title>
<desc>Created with Sketch.</desc>
<g>
	<polygon class="st0" points="48.8,32.5 33.3,23.5 33.3,41.4 	"/>
	<polygon points="48.8,32.5 39.1,26.9 39.1,38.1 	"/>
	<path class="st1" d="M97.4,22.3L97.4,22.3L83,13.9l-3.3-1.9l0,0L79.6,12l-14.5,8.5l-0.7,0.4L49,12l-15.4,8.8L18.3,12L0.5,22.3v20.5
		l17.8,10.3l1.3-0.7l0,0.1l13.9-8.1l15.5,8.8l0.1,0l0,0l12.9-7.5v13.5h4.8V45.7l12.8,7.5l0.1,0l0,0l17.8-10.3L97.4,22.3L97.4,22.3z
		 M66.8,40V25.1l0.7-0.4l12.2-7.1l0.9,0.5l12,6.9v15l-12.9,7.4L66.8,40z M49,17.6l13,7.5v12.1L38.5,23.6L49,17.6z M49,47.5
		l-10.6-6.1l10.5-6.1l10.7,6.2L49,47.5z M5.3,25.1l13-7.5l14.1,8.1l0,0l11.7,6.8l-10.7,6.3l0,0l-10.1,6l-5,2.9L5.3,40V25.1z"/>
</g>
</svg>
